<?xml version="1.0" standalone="no"?>
<!DOCTYPE svg PUBLIC "-//W3C//DTD SVG 20010904//EN"
 "http://www.w3.org/TR/2001/REC-SVG-20010904/DTD/svg10.dtd">
<svg version="1.0" xmlns="http://www.w3.org/2000/svg"
 width="700.000000pt" height="700.000000pt" viewBox="0 0 700.000000 700.000000"
 preserveAspectRatio="xMidYMid meet">
<metadata>
Created by potrace 1.14, written by Peter Selinger 2001-2017
</metadata>
<g transform="translate(0.000000,700.000000) scale(0.100000,-0.100000)"
fill="#000000" stroke="none">
<path d="M3140 6186 c-3 -2 -36 -6 -75 -10 -415 -34 -895 -241 -1224 -527 -81
-70 -194 -181 -241 -235 -33 -39 -39 -42 -101 -48 -36 -3 -90 -11 -120 -17
-30 -5 -65 -12 -79 -15 -166 -32 -392 -130 -561 -244 -371 -249 -614 -616
-710 -1073 -27 -131 -34 -408 -12 -542 97 -611 496 -1107 1060 -1319 40 -15
73 -32 73 -37 0 -28 137 -338 183 -414 121 -198 200 -304 327 -438 103 -108
146 -136 225 -144 182 -19 321 172 247 339 -11 26 -59 88 -107 140 -215 229
-344 460 -434 773 -22 77 -70 144 -122 171 -16 8 -69 26 -117 40 -298 87 -535
269 -694 534 -154 257 -201 578 -128 865 111 435 448 767 876 865 82 19 86 20
184 25 219 13 224 15 331 150 155 194 375 372 599 485 124 63 337 134 460 155
19 3 42 8 50 10 31 9 149 18 257 19 104 2 167 -2 298 -19 85 -11 297 -67 360
-95 11 -5 49 -21 85 -37 310 -134 590 -378 783 -679 55 -86 79 -110 134 -136
69 -31 189 -20 248 22 22 16 164 59 225 68 75 12 245 7 284 -8 14 -5 26 -8 26
-5 0 9 141 -45 196 -75 323 -178 483 -546 393 -905 -14 -57 -27 -89 -76 -189
-69 -143 -62 -199 44 -353 168 -243 236 -498 210 -793 -7 -83 -8 -87 -32 -180
-66 -257 -235 -499 -458 -658 -60 -42 -173 -105 -180 -100 -2 2 -11 -3 -19
-10 -40 -33 -244 -88 -365 -98 -95 -8 -74 -9 -220 0 -111 7 -126 6 -170 -14
-94 -41 -146 -117 -149 -217 -5 -139 85 -238 236 -259 71 -10 296 -10 383 -1
87 9 233 41 317 69 36 12 67 23 70 24 105 29 320 151 453 256 320 252 519 581
608 1003 23 109 34 382 19 485 -18 127 -22 148 -36 205 -39 159 -110 333 -187
459 -21 35 -33 64 -28 70 7 9 35 87 48 131 75 263 63 604 -27 820 -88 212
-172 338 -314 478 -211 207 -461 325 -771 363 -45 6 -214 6 -265 1 -61 -7
-154 -24 -218 -41 l-52 -14 -28 36 c-80 107 -244 279 -337 352 -22 17 -42 35
-45 39 -3 3 -34 28 -70 53 -36 26 -70 51 -76 55 -12 9 -22 16 -117 73 -237
144 -546 255 -822 296 -22 3 -51 8 -65 11 -32 6 -434 15 -440 9z"/>
<path d="M3465 3337 c-85 -21 -155 -87 -179 -169 -10 -33 -12 -204 -12 -710 1
-650 1 -666 -18 -650 -10 9 -132 130 -271 268 -279 277 -290 285 -403 280
-174 -7 -283 -198 -202 -355 10 -21 233 -252 505 -524 519 -520 527 -527 629
-532 107 -6 96 -15 642 530 276 275 510 516 520 535 14 26 19 56 19 115 0 70
-3 85 -27 121 -73 113 -206 154 -321 99 -19 -9 -157 -138 -306 -287 l-270
-270 -3 688 c-3 687 -3 689 -25 730 -55 103 -169 157 -278 131z"/>
</g>
</svg>
